/* XPM */
static char *f488868b8b7f48cea8b31f1162bc3397aye7Op7N9bcqinp7[] = {
/* columns rows colors chars-per-pixel */
"40 40 110 2 ",
"   c #8AD0F1",
".  c #8AD1F1",
"X  c #8ECBEA",
"o  c #9A9FB6",
"O  c #A57F93",
"+  c #AE6877",
"@  c #B25662",
"#  c #B54E58",
"$  c #B3515C",
"%  c #AE6572",
"&  c #A7798A",
"*  c #9D95AC",
"=  c #91C5E3",
"-  c #98ADC7",
";  c #AE606E",
":  c #BF262A",
">  c #C51212",
",  c #C51112",
"<  c #C21719",
"1  c #B3535E",
"2  c #9C9FB6",
"3  c #8CCDEC",
"4  c #91C2DF",
"5  c #A97181",
"6  c #C21A1C",
"7  c #C61112",
"8  c #C41617",
"9  c #B34F59",
"0  c #94B7D2",
"q  c #8BD0F1",
"w  c #97B0CA",
"e  c #BC3137",
"r  c #C02529",
"t  c #A28B9F",
"y  c #BD3137",
"u  c #C31719",
"i  c #9E97AE",
"p  c #90C5E2",
"a  c #BD2B30",
"s  c #C21D20",
"d  c #9AA6BF",
"f  c #89D1F1",
"g  c #AA7181",
"h  c #BA3941",
"j  c #8DC9E8",
"k  c #92C1DF",
"l  c #C11E21",
"z  c #C51213",
"x  c #9F94AB",
"c  c #A57E8F",
"v  c #C61113",
"b  c #B05A67",
"n  c #B4505C",
"m  c #BB353B",
"M  c #8DCEEE",
"N  c #8BD0F0",
"B  c #B93F48",
"V  c #BF292D",
"C  c #8FC7E6",
"Z  c #B7434B",
"A  c #C51113",
"S  c #BE2A30",
"D  c #8EC9E8",
"F  c #B15966",
"G  c #B93C44",
"H  c #8CCFEF",
"J  c #A094AA",
"K  c #AC6A79",
"L  c #8ECCEB",
"P  c #BC2E33",
"I  c #C41618",
"U  c #99A6C0",
"Y  c #A18FA5",
"T  c #B25460",
"R  c #8BCEEF",
"E  c #8CCEEF",
"W  c #B54952",
"Q  c #BC3239",
"!  c #91C1DE",
"~  c #90C3E1",
"^  c #B25560",
"/  c #BE2B30",
"(  c #94B6D1",
")  c #B05B67",
"_  c #C41415",
"`  c #B54851",
"'  c #96B0CB",
"]  c #8BCFEF",
"[  c #9BA2BB",
"{  c #B93E46",
"}  c #C41213",
"|  c #BD3036",
" . c #A58194",
".. c #8DCBE9",
"X. c #A091A6",
"o. c #B15865",
"O. c #BF2125",
"+. c #C21B1E",
"@. c #B74A53",
"#. c #A58094",
"$. c #8FC6E4",
"%. c #8ECFEF",
"&. c #96AFCA",
"*. c #9E90A5",
"=. c #A28498",
"-. c #A67F92",
";. c #A48194",
":. c #A08CA2",
">. c #99A3BD",
",. c #8FC9E8",
/* pixels */
"                                                                                ",
"                                                                                ",
"                                                                                ",
"                                                                                ",
"                                  .                                             ",
"                              X o O + @ # $ % & * =                             ",
"                          - ; : > , , , , , , , , < 1 2 3                       ",
"                      4 5 6 7 , , , , , , , , , , , , 8 9 0 q                   ",
"                    w e 7 , , , , , , , , , , , , , , , , r t                   ",
"                  - y , , , , , , , , , , , , , , , , , , , u i q               ",
"              . p a , , , , , , , , , , , , , , , , , , , , , s d               ",
"              f g , , , , , , , , , , , , , , , , , , , , , , , h j .           ",
"              k l , , , , , , , , , , , , , , , , , , , , , , , z x f           ",
"              c v , , , , , , , , , , , , , , , , , , , , , , , , b .           ",
"              n , , , , , , , , , , , , , , , , , , , , , , , , , m M           ",
"            N B , , , , , , , , , , , , , , , , , , , , , , , , , V C           ",
"            N Z A , , , , , , , , , , , , , , , , , , , , , , , , S D           ",
"              F , , , , , , , , , , , , , , , , , , , , , , , , , G H           ",
"              J , , , , , , , , , , , , , , , , , , , , , , , , , K .           ",
"              L P , , , , , , , , , , , , , , , , , , , , , , , I U .           ",
"                Y , , , , , , , , , , , , , , , , , , , , , , , T R             ",
"                E W , , , , , , , , , , , , , , , , , , , , , Q !               ",
"                  ~ ^ A , , , , , , , , , , , , , , , , , , / ( .               ",
"                    C ) _ , , , , , , , , , , , , , , , , ` '                   ",
"                      ] [ { } , , , , , , , , , , , , |  .3                     ",
"                          ..X.o.O.A v , , , , , +.@.#.$.                        ",
"                                %.&.*.=.-.;.:.>.,.                              ",
"                                      .     .                                   ",
"                                                                                ",
"                                                                                ",
"                                                                                ",
"                                                                                ",
"                                                                                ",
"                                                                                ",
"                                                                                ",
"                                                                                ",
"                                                                                ",
"                                                                                ",
"                                                                                ",
"                                                                                "
};
