/* XPM */
static char *result[] = {
/* columns rows colors chars-per-pixel */
"40 40 149 2 ",
"   c #131313",
".  c #1C1413",
"X  c #181718",
"o  c #17191A",
"O  c #1A1B1C",
"+  c #241615",
"@  c #291614",
"#  c #211817",
"$  c #291917",
"%  c #271918",
"&  c #2B1B19",
"*  c #341512",
"=  c #3B1512",
"-  c #301B1A",
";  c #1A1E20",
":  c #1C2224",
">  c #1F2629",
",  c #232323",
"<  c #20272A",
"1  c #222A2E",
"2  c #2B2B2B",
"3  c #232C30",
"4  c #263136",
"5  c #273339",
"6  c #29363C",
"7  c #333333",
"8  c #3C3C3C",
"9  c #551711",
"0  c #6E1911",
"q  c #771A11",
"w  c #7B1A12",
"e  c #2E3C43",
"r  c #33444D",
"t  c #384C56",
"y  c #354952",
"u  c #3E5763",
"i  c #434343",
"p  c #4B4B4B",
"a  c #4B4342",
"s  c #545353",
"d  c #5C5C5C",
"f  c #625A5A",
"g  c #415A66",
"h  c #45606D",
"j  c #496776",
"k  c #496876",
"l  c #4B6B7A",
"z  c #646364",
"x  c #6C6C6C",
"c  c #746C6B",
"v  c #737373",
"b  c #7B7B7B",
"n  c #811A11",
"m  c #8B1B10",
"M  c #9A1B10",
"N  c #A61C0F",
"B  c #A31C10",
"V  c #AF1D10",
"C  c #BB1F11",
"Z  c #C42113",
"A  c #925F5A",
"S  c #965953",
"D  c #A3645F",
"F  c #966A65",
"G  c #986A66",
"H  c #9B6F6B",
"J  c #9C736E",
"K  c #827877",
"L  c #A3706B",
"P  c #B1736D",
"I  c #A27672",
"U  c #A57975",
"Y  c #AA7B77",
"T  c #A77E7A",
"R  c #B87772",
"E  c #B07F7A",
"W  c #B07A74",
"Q  c #D96A5F",
"!  c #D9665B",
"~  c #DB7167",
"^  c #DE7D74",
"/  c #87807F",
"(  c #AC807B",
")  c #B3827E",
"_  c #DF8077",
"`  c #D7867E",
"'  c #527788",
"]  c #537889",
"[  c #507384",
"{  c #577E90",
"}  c #5E899D",
"|  c #6594A9",
" . c #6B9DB4",
".. c #6FA4BC",
"X. c #74ABC5",
"o. c #77B0CB",
"O. c #78B2CD",
"+. c #7AB5D1",
"@. c #7DBAD7",
"#. c #7FBEDB",
"$. c #838383",
"%. c #8B8B8B",
"&. c #898382",
"*. c #939393",
"=. c #9B9B9B",
"-. c #948988",
";. c #B38682",
":. c #B48A86",
">. c #BA8A86",
",. c #B7908C",
"<. c #BB928E",
"1. c #BD9691",
"2. c #BE9893",
"3. c #BF9D9A",
"4. c #A4A4A4",
"5. c #ACACAC",
"6. c #B3B3B3",
"7. c gray72",
"8. c #D08982",
"9. c #C9928C",
"0. c #C19692",
"q. c #C19995",
"w. c #C29E9A",
"e. c #E8A49D",
"r. c #C9A5A1",
"t. c #CEA9A6",
"y. c #CFACA8",
"u. c #D7B4B1",
"i. c #E9AEA8",
"p. c #EDB9B4",
"a. c #DCC2BF",
"s. c #80BFDC",
"d. c #81C1DF",
"f. c #83C4E3",
"g. c #87C9E9",
"h. c #8ACFF0",
"j. c #8AD0F1",
"k. c #DAC2C0",
"l. c #F2CECA",
"z. c #F5DDDA",
"x. c #F2D4D0",
"c. c #F6E0DD",
"v. c #F7E3E1",
"b. c #F8E7E5",
"n. c #F9ECEB",
"m. c #FBF0EF",
"M. c #FBF5F4",
"N. c #FCF8F7",
"B. c #FFFEFE",
/* pixels */
"j.j.j.j.j.j.f.} r 3 ; .                                   o > r } @.h.h.h.h.j.j.",
"j.j.j.j.g.k ;   o 7 8 r i 8 8 i i 8 8 8 8 8 8 8 8 7 7 8 8 7 o     o u s.j.j.j.h.",
"j.j.j.X.5 X p %.6.7.7.6.6.5.5.5.5.4.4.4.=.=.=.*.*.*.*.%.%.( $.d       > ..g.h.j.",
"j.j.o.1 , b 6.6.6.6.5.5.5.4.4.4.4.=.=.=.=.*.*.*.*.%.%.$.$.} / b ;       o ..j.j.",
"j.d.e ; *.6.5.5.5.5.4.4.4.=.=.=.*.*.*.*.%.%.%.%.%.$./ b b b x 7           > O.j.",
"j.j X $.5.5.5.4.4.=.=.=.=.=.*.*.%.*.%.%.%.$.&.b b b b b x i O               t j.",
"s.O p 4.4.4.=.=.=.=.*.*.*.%.%.%.%.$.$.$.$.b b b v z p 7 O                     ..",
"] o b =.=.=.=.*.*.*.%.%.%.%.%.&./ b v s i 7 7 2 ,                             u ",
"r 2 =.*.*.*.*.%.%.-.>.8.;./ K b b s X               . 0 N m *                 > ",
"3 i *.%.%.%.$.$.&.` e.n.n.u.K v v %               . D z.z.~ Z *                 ",
"O p %.&.$.$.$./ W e.B.B.B.B.k.c z                 ( N.B.B.B.^ M                 ",
"  p J } b b v v R l.B.B.B.B.B.k.a               ( N.B.B.B.B.z.V                 ",
"  i b v v v x x H l.B.B.B.B.B.B.2.#         . I B.B.B.B.B.B.z.n                 ",
"  i v x x x x z z 0.N.B.B.B.B.B.B.,.%     # H B.B.B.B.B.B.B.) +                 ",
"  8 z x z z z z d f w.B.B.B.B.B.B.N.1.# . I N.B.B.B.B.B.B.q.$                   ",
"  8 z d d d s s s s s <.B.B.B.B.B.B.B.q.Y N.B.B.B.B.B.B.q.$                     ",
"  7 s d s s s s p p 7 # U N.B.B.B.B.B.B.B.B.B.B.B.B.B.1.$                       ",
"  7 s p p p i i i 2     . ( N.B.B.B.B.B.B.B.B.B.B.B.w.$                         ",
"  2 p p i i i 8 ,         . U B.B.B.B.B.B.B.B.B.B.1.$                           ",
"  2 i 8 i 8 8 ,             . L B.B.B.B.B.B.B.B.0.+                             ",
"  2 8 7 7 7 2                 A B.B.B.B.B.B.B.B.) .                             ",
"  , 7 7 2 2               . G N.B.B.B.B.B.B.B.B.B.;.+                           ",
"  O 2 , , o             X J M.B.B.B.B.B.B.B.B.B.B.N.,.#                         ",
"  o , , O             . F M.B.B.B.B.B.B.B.B.B.B.B.B.N.;.#                       ",
"  X O o             . G N.B.B.B.B.B.B.t.:.B.B.B.B.B.B.B.;.#                     ",
"                  . G N.B.B.B.B.B.B.r.% . ;.N.B.B.B.B.B.B.:.$                   ",
"                  S M.B.B.B.B.B.B.3.&     % T B.B.B.B.B.B.N.Y +                 ",
"                9 i.B.B.B.B.B.B.r.&         $ ( B.B.B.B.B.B.l.q                 ",
"                m p.B.B.B.B.B.u.$             . <.B.B.B.B.B.l.B                 ",
"O               w ! N.B.B.B.t.@                 . :.B.B.B.B._ m                 ",
"1               @ C Q v.m.9.-                     $ P c.c.^ Z =               o ",
"r                 @ m C m @                         # w B m =                 > ",
"[                                                                             u ",
"@.O                                                                            .",
"j.h                                                                         r j.",
"j.#.5                                                                     : X.j.",
"j.j.X.:                                                                 o | j.j.",
"j.j.j...1                                                             : | j.j.j.",
"j.j.j.j.f.u o                                                       y +.j.j.j.j.",
"j.j.j.j.j.j.s.' 6 O                                         o 4 l O.j.j.j.j.j.j."
};
