/* XPM */
static char *_ed02f2df1454c119dd85b8aefa4ee5dmslqcIQTDC6v1m5e[] = {
/* columns rows colors chars-per-pixel */
"40 40 205 2 ",
"   c #020102",
".  c #0C0C0C",
"X  c gray12",
"o  c #222222",
"O  c #3A2525",
"+  c #3A3A3A",
"@  c #6D0202",
"#  c #740101",
"$  c #7C0101",
"%  c #730B0A",
"&  c #7C0B0D",
"*  c #7A0708",
"=  c #751112",
"-  c #7D1D1D",
";  c #781717",
":  c #781209",
">  c #5D2501",
",  c #572C10",
"<  c #6D2C01",
"1  c #672601",
"2  c #732D02",
"3  c #702D0B",
"4  c #7C3202",
"5  c #773206",
"6  c #7E201F",
"7  c #7C3D13",
"8  c #711F24",
"9  c #7B2428",
"0  c #732D34",
"q  c #7C2B32",
"w  c #79343B",
"e  c #79411B",
"r  c #7F502F",
"t  c #784C2F",
"y  c #5E5E5E",
"u  c #524849",
"i  c #604B4B",
"p  c #7C454D",
"a  c #7D5F48",
"s  c #635755",
"d  c #796757",
"f  c #745660",
"g  c #6D6E6B",
"h  c #716E67",
"j  c #7E6D7D",
"k  c #797872",
"l  c #840101",
"z  c #8C0101",
"x  c #800C0E",
"c  c #890808",
"v  c #930101",
"b  c #9B0101",
"n  c #851919",
"m  c #851417",
"M  c #9A1D1D",
"N  c #941212",
"B  c #A40000",
"V  c #AC0000",
"C  c #A80809",
"Z  c #B30101",
"A  c #BB0100",
"S  c #B60D0D",
"D  c #B90C0D",
"F  c #8E2102",
"G  c #93230A",
"H  c #853501",
"J  c #8B3905",
"K  c #913A01",
"L  c #9B3E01",
"P  c #883116",
"I  c #A82011",
"U  c #BF2119",
"Y  c #871F24",
"T  c #822424",
"R  c #852B2A",
"E  c #892F2F",
"W  c #83262C",
"Q  c #9F2F30",
"!  c #8D3535",
"~  c #8A3635",
"^  c #903131",
"/  c #9C312A",
"(  c #A82729",
")  c #B02929",
"_  c #A32A31",
"`  c #B62C31",
"'  c #A63030",
"]  c #B5373A",
"[  c #C30101",
"{  c #CB0101",
"}  c #C70D0E",
"|  c #CB0C0D",
" . c #D30101",
".. c #DB0101",
"X. c #DE0C0C",
"o. c #D10B0B",
"O. c #C7191C",
"+. c #DC1617",
"@. c #E40102",
"#. c #EC0303",
"$. c #EA0D0D",
"%. c #F40C0C",
"&. c #E61818",
"*. c #F81B1B",
"=. c #CA2924",
"-. c #D13539",
";. c #E4292A",
":. c #EC2827",
">. c #F42526",
",. c #E83939",
"<. c #F63636",
"1. c #875533",
"2. c #975E3A",
"3. c #9C582A",
"4. c #B8403F",
"5. c #A94229",
"6. c #924141",
"7. c #984C4C",
"8. c #984545",
"9. c #995656",
"0. c #855A59",
"q. c #AB4140",
"w. c #BE4B4B",
"e. c #AC5D5D",
"r. c #906B4E",
"t. c #885E6C",
"y. c #BB5E6B",
"u. c #A85663",
"i. c #807A6F",
"p. c #826777",
"a. c #826C7C",
"s. c #BE6060",
"d. c #B87879",
"f. c #AA676D",
"g. c #D7464B",
"h. c #ED4444",
"j. c #EF4748",
"k. c #F74242",
"l. c #EB5E5D",
"z. c #F75958",
"x. c #CA6868",
"c. c #D76E6B",
"v. c #F36566",
"b. c #FA6868",
"n. c #F67A7A",
"m. c #F97676",
"M. c #7A817E",
"N. c #7F788B",
"B. c #7F7C90",
"V. c #827384",
"C. c #95778A",
"Z. c #987487",
"A. c #807E91",
"S. c #8F7F92",
"D. c #947E91",
"F. c #A07D87",
"G. c #B2788A",
"H. c #708389",
"J. c #888686",
"K. c #87879B",
"L. c #80969C",
"P. c #9E9A9A",
"I. c #978690",
"U. c #AE889C",
"Y. c #A19898",
"T. c #AF838C",
"R. c #868CA0",
"E. c #8794AC",
"W. c #869EB6",
"Q. c #959CB4",
"!. c #88A4AD",
"~. c #86A3BB",
"^. c #83ADBD",
"/. c #8AA4BD",
"(. c #91A4A7",
"). c #A1A1A1",
"_. c gray66",
"`. c #A2A3BB",
"'. c #B6B6B6",
"]. c gray72",
"[. c #CF898A",
"{. c #E38080",
"}. c #C1B8B9",
"|. c #89A7C1",
" X c #8AA9C2",
".X c #82B2C6",
"XX c #82B6CD",
"oX c #87B6D3",
"OX c #89BAD7",
"+X c #94A9C4",
"@X c #89C3DF",
"#X c #8AC5E3",
"$X c #8BC9E6",
"%X c #8BCDEC",
"&X c #92C4E2",
"*X c #8AD0EF",
"=X c #8BCFF0",
"-X c #8AD0F1",
";X c #CFCFCF",
":X c #C5C5C5",
">X c #DDDCDC",
",X c #E0DEDF",
"<X c #ECE9EA",
"1X c #EFF0EF",
"2X c gray94",
/* pixels */
"-X-X-X-X-X-X-X-X-X-X-X-X-X-X-X-X-X-X-X-X-X-X-X-X-X-X-X-X-X-X-X-X-X-X-X-X-X-X-X-X",
"-X-X-X-X-X-X-X-X-X-X-X-X-X-X-X-X-X-X-X-X-X-X-X-X-X-X-X-X-X-X-X-X-X-X-X-X-X-X-X-X",
"-X-X-X-X-X-X-X-X-X-X-X-X-X-X-X-X-X-X-X-X-X-X-X-X-X-X-X-X-X-X-X-X-X-X-X-X-X-X-X-X",
"-X-X-X-X-X-X-X-X-X-X-X-X-X-X-X-X-X-X-X-X-X-X-X-X-X-X-X-X-X-X-X-X-X-X-X-X-X-X-X-X",
"-X-X-X-X-X-X-X^.-X-X-X-X-X-X-X-X-X-X-X-X-X-X-X-X-X-X-X-X-X-X-X-X-X-X-X-X-X-X-X-X",
"-X-X-X-X-X-X@Xd -X-X-X-X-X-X-X-X-X-X-X-X-X-X-X-X-X-X-X-X-X-X-X-X-X-X*X-X-X-X-X-X",
"-X-X-X-X*X*XJ.a -X-X-X-X-X-X-X-X-X-X-X-X-X-X-X-X-X-X-X-X-X-X-X-X-X-XH..X-X-X-X-X",
"-X-X*X*X*X$Xt r.-X-X-X-X-X-X-X=X-X-X-X-X-X=X-X-X-X-X-X-X-X-X-X-X-X-X^.k -X-X-X-X",
"-X-X-X-X-X!.5 1.-X-X-X-X-X-X%XQ.u.] O.} | O.-.y.`.%X=X-X-X-X-X-X-X-Xk r -X-X-X-X",
"-X-X-X-X-XM.5 J %X*X-X-X&XZ.( A A [ [  . . .X.&.:.g.T.&X-X-X-X-X-X$X1.e %X-X-X-X",
"-X-X-X-X-Xh 2 J (.-X*XQ._ V A A [ { {  ...@.&.:.j.j.,.g.`.=X-X-X*X(.J 7 #X-X-X-X",
"-X-X-X-X*Xg 1 H 3.#XI.C V V Z A [ {  . ...@.&.<.z.v.z.h.;.U.=X-X%X2.H 7 #X-X-X-X",
"-X-X-X-X-XH.> 2 L / b C V Z A A [ {  .....@.$.>.z.m.m.v.j.;.G.%Xr.L K t =X-X-X-X",
"-X-X-X-X-X.X, < F v b B V Z A A [ {  ...@.@.#.*.<.z.m.n.v.h.=.2.L K H d -X-X-X-X",
"-X-X-X-X-X-Xy 1 c v b B V Z Z [ [ {  .....#.#.%.*.k.v.n.c.' J K K H 3 |.-X-X-X-X",
"-X-X-X-X-X-XXX: v b B B V Z A A [ {  . .@.#.#.#.%.*.k.l.< 2 H J H 4 h -X-X-X-X-X",
"-X-X-X-X-X-X Xz v N e.d.4.V A A [ { O.x.c.,.@.#.#.$.:.,.P < 5 4 2 a $X-X-X-X-X-X",
"-X-X-X-X-X-Xt.z ^ P.'.>X<X[.S Z [ ] Y.].,X<X{.@.@.@.$.&.=.5 < < G f.-X-X-X-X-X-X",
"-X-X-X-X-X%XW z s o o J.2X<Xg.V D i X o ).1X,X-.@...@.X.+.U G I } ` =X-X-X-X-X-X",
"-X-X-X-X-X|.x n .     . }.;Xd.Z ( .     . :X;Xx....... .o.o.| | } D +X=X-X-X-X-X",
"-X-X-X-X-XK.$ ;         _.].f.Z M         _.'.y. . . . .{ { { [ A A I.=X-X-X-X-X",
"-X-X-X-X-XV.$ l O     + ).Y.' Z C O     u ).P.=.{ { { { { [ [ A Z Z D.=X-X-X-X-X",
"-X-X-X-X-XV.$ $ n u y J.J.8.B V Z M i y J.J.q.[ { [ [ [ [ A A Z Z Z Z.-X-X-X-X-X",
"-X-X-X-X-Xa.# $ l c T E N b B B V Z C _ / S A [ [ [ [ A A A Z Z V V Z.-X-X-X-X-X",
"-X-X-X-X-XN.# $ $ l z z v b b B B V Z Z Z Z A A A Z A Z Z Z Z V V B C.-X-X-X-X-X",
"-X-X-X-X-XN.# # $ l l z l @ @ l v B V V V Z Z Z Z Z Z Z Z V V B B b C.-X-X-X-X-X",
"-X-X-X-X=XN.@ # $ $ l 9.f @ @ @ ; d.) B V V V V V V V V V B B B b b C.-X-X-X-X-X",
"-X-X-X-X=XB.@ @ # $ l J.F.z z v ! ].( b B B B B B V B B B B b b b v I.=X-X-X-X-X",
"-X-X-X-X-XH.% @ @ # $ 0.9.l z z ~ T.v b b b B b B b b B b b b v v z K.=X-X-X-X-X",
"-X-X-X-X-XK.@ @ @ # # 9 T l l z n ! v v v b b b b b b v v v v v z z R.=X-X-X-X-X",
"-X-X-X-X-XE.% = = % # * * l l l c c z z v v v v v v v v v z z z l l E.-X-X-X-X-X",
"-X-X-X-X-X|.; W E - % # # # $ * l l l z z z z z c z z z z z l l l & ~.-X-X-X-X-X",
"-X-X-X-X-X$Xw ~ 7.6.T % # ; W.@X8 l $ l l l l Y OX+Xm l l l $ l $ 9 %X=X-X-X-X-X",
"-X-X-X-X-X-Xp.W 7.9.! & @ A.=X=X|.& $ $ $ $ & |.-X-XK.$ l $ $ # # V.-X=X-X-X-X-X",
"-X-X-X-X-X-XOXq ! 7.1.Y 0 #X=X=X-Xj # # $ # a.=X-X-X#Xq # # # @ 9 #X-X-X-X-X-X-X",
"-X-X-X-X-X-X*XoXw E ^ 8 W.-X-X-X-X#Xw @ # w #X=X-X=X=XW.# @ @ 8 oX-X-X-X-X-X-X-X",
"-X-X-X-X-X-X-X-X#XR.p j -X-X-X-X-X-XoX0 0 oX-X-X-X-X-X-Xj w B.$X-X-X-X-X-X-X-X-X",
"-X-X-X-X-X-X-X-X-X-X=X=X-X-X-X-X-X-X-X%X-X-X-X-X-X-X-X-X-X-X-X-X-X-X-X-X-X-X-X-X",
"-X-X-X-X-X-X-X-X-X-X-X-X-X-X-X-X-X-X-X-X-X-X-X-X-X-X-X-X-X-X-X-X-X-X-X-X-X-X-X-X",
"-X-X-X-X-X-X-X-X-X-X-X-X-X-X-X-X-X-X-X-X-X-X-X-X-X-X-X-X-X-X-X-X-X-X-X-X-X-X-X-X"
};
