/* XPM */
static char *result[] = {
/* columns rows colors chars-per-pixel */
"40 40 207 2 ",
"   c #010101",
".  c #0C0B0C",
"X  c gray12",
"o  c #222222",
"O  c #3A2525",
"+  c #3A3A3A",
"@  c #6D0202",
"#  c #740101",
"$  c #7C0101",
"%  c #730B0A",
"&  c #7F080A",
"*  c #790D10",
"=  c #6F1919",
"-  c #751112",
";  c #7C1516",
":  c #7D1D1D",
">  c #761718",
",  c #781209",
"<  c #5D2502",
"1  c #572C11",
"2  c #6D2B01",
"3  c #6B2806",
"4  c #742D02",
"5  c #773002",
"6  c #7C3202",
"7  c #76350A",
"8  c #7E201F",
"9  c #7B3D14",
"0  c #711F23",
"q  c #7A2428",
"w  c #732D34",
"e  c #7C2B32",
"r  c #79343B",
"t  c #79411C",
"y  c #7F502F",
"u  c #794D2E",
"i  c #5E4B4A",
"p  c #5E5E5E",
"a  c gray28",
"s  c #7D5F48",
"d  c #635755",
"f  c #7C454D",
"g  c #776554",
"h  c #7A6B5D",
"j  c #765660",
"k  c #6C6E69",
"l  c #716E67",
"z  c #7E6B7B",
"x  c #797871",
"c  c #830101",
"v  c #8B0100",
"b  c #800C0E",
"n  c #890708",
"m  c #930001",
"M  c #9C0101",
"N  c #851A1A",
"B  c #861417",
"V  c #9A1D1D",
"C  c #941212",
"Z  c #A40000",
"A  c #AC0001",
"S  c #AF0808",
"D  c #B30101",
"F  c #BB0000",
"G  c #B60D0D",
"H  c #BA0D0D",
"J  c #8E2102",
"K  c #93230B",
"L  c #863501",
"P  c #8A3603",
"I  c #8A3A06",
"U  c #913A01",
"Y  c #9B3E01",
"T  c #883116",
"R  c #A82011",
"E  c #BF2119",
"W  c #832325",
"Q  c #892F2F",
"!  c #842A2B",
"~  c #88302F",
"^  c #8D3535",
"/  c #8A3536",
"(  c #983131",
")  c #9D3129",
"_  c #AA2729",
"`  c #A32A31",
"'  c #A63030",
"]  c #B4373A",
"[  c #B62C32",
"{  c #C40101",
"}  c #CB0001",
"|  c #C70D0E",
" . c #CC0C0D",
".. c #D30101",
"X. c #DB0101",
"o. c #DF0C0B",
"O. c #D10B0B",
"+. c #C7191B",
"@. c #DC1617",
"#. c #E40102",
"$. c #EC0303",
"%. c #EA0D0D",
"&. c #F30C0B",
"*. c #E61919",
"=. c #F41717",
"-. c #F9201F",
";. c #CA2924",
":. c #DC3636",
">. c #C8343B",
",. c #E4292A",
"<. c #EC2728",
"1. c #F42626",
"2. c #EE3535",
"3. c #EC3D3D",
"4. c #FB3838",
"5. c #875633",
"6. c #965E3A",
"7. c #9C582B",
"8. c #B8403F",
"9. c #A94228",
"0. c #924141",
"q. c #984C4C",
"w. c #984545",
"e. c #995557",
"r. c #845A5A",
"t. c #AB4040",
"y. c #BE4B4B",
"u. c #AB5D5D",
"i. c #846147",
"p. c #9C7455",
"a. c #885E6B",
"s. c #BC5E6B",
"d. c #A95664",
"f. c #816C7C",
"g. c #836776",
"h. c #807A70",
"j. c #BD6160",
"k. c #B87878",
"l. c #AA676E",
"z. c #D7464C",
"x. c #ED4444",
"c. c #EF4847",
"v. c #F74242",
"b. c #EB5E5D",
"n. c #F75859",
"m. c #CA6869",
"M. c #D76E6A",
"N. c #F46666",
"B. c #F96869",
"V. c #F97676",
"C. c #F67A7A",
"Z. c #79817F",
"A. c #7F7A8D",
"S. c #7F778A",
"D. c #7F7E90",
"F. c #817384",
"G. c #92788B",
"H. c #997587",
"J. c #887E91",
"K. c #947D91",
"L. c #A37E87",
"P. c #B3798A",
"I. c #708389",
"U. c #888686",
"Y. c #86879C",
"T. c #80979C",
"R. c #9E999A",
"E. c #978691",
"W. c #AE899C",
"Q. c #A19898",
"!. c #AF838C",
"~. c #858DA1",
"^. c #8795AB",
"/. c #879EB7",
"(. c #959CB4",
"). c #88A4AD",
"_. c #83ADBE",
"`. c #89A4BD",
"'. c #91A4A7",
"]. c #A2A1A1",
"[. c gray66",
"{. c #A1A3BB",
"}. c #B7B7B7",
"|. c #D0898A",
" X c #E38081",
".X c #C1B8B9",
"XX c #89A7C1",
"oX c #8BA8C2",
"OX c #82B3C8",
"+X c #88B5D1",
"@X c #8BBDDA",
"#X c #88B8D5",
"$X c #94AAC4",
"%X c #8BC2DF",
"&X c #8AC6E3",
"*X c #8AC9E6",
"=X c #8BCCEC",
"-X c #92C4E1",
";X c #8BCFF0",
":X c #8AD0F1",
">X c #CCCCCC",
",X c #C3C3C3",
"<X c #DDDCDC",
"1X c #E0DEDF",
"2X c #ECE9EA",
"3X c #F0F0EF",
"4X c gray94",
/* pixels */
":X:X:X:X:X:X:X:X:X:X:X:X:X:X:X:X:X:X:X:X:X:X:X:X:X:X:X:X:X:X:X:X:X:X:X:X:X:X:X:X",
":X:X:X:X:X:X:X:X:X:X:X:X:X:X:X:X:X:X:X:X:X:X:X:X:X:X:X:X:X:X:X:X:X:X:X:X:X:X:X:X",
":X:X:X:X:X:X:X:X:X:X:X:X:X:X:X:X:X:X:X:X:X:X:X:X:X:X:X:X:X:X:X:X:X:X:X:X:X:X:X:X",
":X:X:X:X:X:X:X:X:X:X:X:X:X:X:X:X:X:X:X:X:X:X:X:X:X:X:X:X:X:X:X:X:X:X:X:X:X:X:X:X",
":X:X:X:X:X:X:X:X:X:X:X:X:X:X:X:X:X:X:X:X:X:X:X:X:X:X:X:X:X:X:X:XI.:X:X:X:X:X:X:X",
":X:X:X:X=X*X:X:X:X:X:X:X:X:X:X:X:X:X:X:X:X:X:X:X:X:X:X:X:X:X:X:Xg %X:X:X:X:X:X:X",
":X:X:X:X+XOX:X:X:X:X:X:X:X:X:X:X:X:X:X:X:X:X:X:X:X:X:X:X:X:X:X:Xs U.:X:X:X:X:X:X",
":X:X;X;Xx I.:X:X:X:X:X:X:X:X:X:X:X:X:X;X;X;X:X:X:X:X:X:X:X:X:X:Xi.5.=X:X:X:X:X:X",
":X:X:X;Xu x :X:X:X:X:X:X:X:X;X{.s.>.+. .| +.[ d.(.=X;X;X:X:X:X:X5.7 ).:X:X:X:X:X",
":X:X;X=Xt 5.=X:X:X:X:X:X-X!.z.<.*.%.X...} } { F { _ H.%X:X:X:X*XI 5 Z.:X:X:X:X:X",
":X:X:X%X9 L '.:X:X:X;X{.z.2.c.c.2.@.o.X...} { { F D A ` (.:X:X'.L 2 k :X:X:X:X:X",
":X:X:X%Xt I 6.=X:X;XW.,.x.n.B.n.2.%.#.X.....} { F F D A Z K.-X7.L 2 k :X:X:X:X:X",
":X:X:X:Xu L Y p.;XP.,.x.N.V.B.n.1.%.#.X.....} { F F D A Z M 9.I 6 < I.:X:X:X:X:X",
":X:X:X:Xh 6 U Y 6.;.x.N.C.V.n.4.=.$.#.#.X...} } { D D A Z M m K 2 1 OX:X:X:X:X:X",
":X:X:X:X_.7 I U U P 9.M.C.N.v.-.&.$.$.X.X...} { F F D A Z M M n 3 d =X:X:X:X:X:X",
":X:X:X:X;Xh 5 L I L 5 3 b.3.1.&.$.$.#.#.X...} { { D D A Z M M m , OX:X:X:X:X:X:X",
":X:X:X:X:X*Xg 4 5 4 5 T 3.<.%.$.$.X.:.M.m.+.} { F D Z t.k.u.V m n oX:X:X:X:X:X:X",
":X:X:X:X:X:Xl.K 4 3 7 ;.*.%.$.#.#.C.2X1X}.Q.] { F H |.3X1X}.Q.Q v a.:X:X:X:X:X:X",
":X:X:X:X:X=X[ | R K E @.o.X.X.#.:.1X4X'.o X i G F z.<X4XU.o X d n q =X:X:X:X:X:X",
":X:X:X:X;X$XG | |  .O...X...X.X.m.>X>X.     . _ D k.>X,X.     . B b XX:X:X:X:X:X",
":X:X:X:X:XE.S F { { } } ........j.}.[.        V D l.}.].        B $ Y.:X:X:X:X:X",
":X:X:X:X:XH.F F F { { } } } } } ;.Q.].a     O S D ' ].R.+     O $ $ F.:X:X:X:X:X",
":X:X:X:X:XH.D D F F F { { { { { { t.U.U.p i V D A Z w.U.U.p i N c $ F.:X:X:X:X:X",
":X:X:X:X:XH.A A D D F F { F { { F F H ' ) S D A Z Z M C ~ ! n c $ # S.:X:X:X:X:X",
":X:X:X:X:XG.Z A A A D D F F F F F D D D D D A A Z M M M v v c $ $ # F.;X;X:X:X:X",
":X:X:X:X:XG.M Z Z A A D A D D D D D D A A Z Z m c @ @ $ v c c $ # @ A.;X:X:X:X:X",
":X:X:X:X:XG.M M Z Z Z A A A A A A A A A Z _ k.= @ @ @ j e.c $ $ # @ A.:X:X:X:X:X",
":X:X:X:X:XJ.M M M M Z M Z Z A Z A Z Z Z Z _ }.^ m v v L.U.$ $ # @ @ J.:X:X:X:X:X",
":X:X:X:X:XY.m M M M M M M M M M M M M M M M !.~ v v c e.r.$ # # @ @ I.:X:X:X:X:X",
":X:X:X:X:XY.c v m m v M M M M M M M M M m M / N v c c W q # # # @ @ ^.:X:X:X:X:X",
":X:X:X:X;X^.n c v v m v m m M m m m v m v v n n c c $ & % # % - - % ^.:X:X:X:X:X",
":X:X:X:X:X`.& c c v c v v v n n v v v v c c c c & $ # # # % : ~ W > XX:X:X:X:X:X",
":X:X:X:X:X*Xq $ $ c c c c B `.@XW v c c c $ $ 0 @X/.; # % W 5.q.^ ! &X:X:X:X:X:X",
":X:X:X:X:X:XS.# # $ $ $ $ Y.;X;XoX* c $ $ $ * XX:X:XJ.@ > / q.q.! F.:X:X:X:X:X:X",
":X:X:X:X:X:X&Xq # # # # e =X;X;X;Xg.# # # # z :X:X:X*Xw : 0.q./ e @X:X:X:X:X:X:X",
":X:X:X:X:X:X:X+X0 @ # # /.:X:X;X;X*Xr @ # r &X;X:X:X:X/.: ^ ~ r #X:X:X:X:X:X:X:X",
":X:X:X:X:X:X:X:X&XD.w S.;X;X:X:X:X:X#Xw w #X:X:X:X:X:X=Xz f ~.*X:X:X:X:X:X:X:X:X",
":X:X:X:X:X:X:X:X:X:X:X:X;X;X:X:X:X:X:X=X*X:X:X:X:X:X:X:X:X;X:X:X:X:X:X:X:X:X:X:X",
":X:X:X:X:X:X:X:X:X:X:X:X:X:X:X:X:X:X:X:X:X:X:X:X:X:X:X:X:X:X:X:X:X:X:X:X:X:X:X:X",
":X:X:X:X:X:X:X:X:X:X:X:X:X:X:X:X:X:X:X:X:X:X:X:X:X:X:X:X:X:X:X:X:X:X:X:X:X:X:X:X"
};
