/* XPM */
static char *_93734f9753c448cf8558165bc69481exSWSdfdt9UtCQOgB[] = {
/* columns rows colors chars-per-pixel */
"40 40 139 2 ",
"   c #000000",
".  c #161503",
"X  c #131A1D",
"o  c #262604",
"O  c #2A2904",
"+  c #252509",
"@  c #303106",
"#  c #292F1D",
"$  c #2C3119",
"%  c #343712",
"&  c #393E17",
"*  c #313719",
"=  c #161F23",
"-  c #1E2621",
";  c #192429",
":  c #252E24",
">  c #2F3722",
",  c #26322C",
"<  c #2B362A",
"1  c #2F392C",
"2  c #353E2A",
"3  c #293533",
"4  c #2C3932",
"5  c #24343C",
"6  c #2C3B3B",
"7  c #303F3C",
"8  c #3C431F",
"9  c #3B4220",
"0  c #344032",
"q  c #444407",
"w  c #4B4A06",
"e  c #45470D",
"r  c #4C4C0C",
"t  c #535206",
"y  c #5D5C06",
"u  c #55550C",
"i  c #57580B",
"p  c #595809",
"a  c #434510",
"s  c #494C13",
"d  c #605F06",
"f  c #676707",
"g  c #6C6B07",
"h  c #616108",
"j  c #6E6D08",
"k  c #747306",
"l  c #787707",
"z  c #7B7A06",
"x  c #787708",
"c  c #2B3C43",
"v  c #2F4143",
"b  c #2E424A",
"n  c #374944",
"m  c #31454C",
"M  c #324751",
"N  c #334A52",
"B  c #384F55",
"V  c #37525E",
"C  c #3A545E",
"Z  c #395360",
"A  c #3C5864",
"S  c #3E5B69",
"D  c #466776",
"F  c #476979",
"G  c #496D7D",
"H  c #817F06",
"J  c #838206",
"K  c #898707",
"L  c #8B8906",
"P  c #908E05",
"I  c #969406",
"U  c #9D9B06",
"Y  c #A29F06",
"T  c #A4A206",
"R  c #A8A505",
"E  c #ADAB06",
"W  c #B1AE05",
"Q  c #B5B206",
"!  c #B9B605",
"~  c #BCB905",
"^  c #C2BF06",
"/  c #C6C306",
"(  c #C9C705",
")  c #CCCA04",
"_  c #D0CE05",
"`  c #D5D204",
"'  c #D9D604",
"]  c #DDDA04",
"[  c #E1DE04",
"{  c #E5E303",
"}  c #E9E604",
"|  c #EDEA02",
" . c #F2EF00",
".. c #F2F002",
"X. c #4C7082",
"o. c #547D91",
"O. c #578195",
"+. c #598598",
"@. c #5B889C",
"#. c #5F8DA2",
"$. c #6191A7",
"%. c #6393AA",
"&. c #6698AF",
"*. c #6698B0",
"=. c #699BB3",
"-. c #6B9FB8",
";. c #6DA3BC",
":. c #70A6C0",
">. c #72AAC4",
",. c #74AEC9",
"<. c #77B2CD",
"1. c #7AB6D2",
"2. c #7CB9D6",
"3. c #7DBCD9",
"4. c #80BFDD",
"5. c #80C1DF",
"6. c #84C6E4",
"7. c #82C4E2",
"8. c #85C8E7",
"9. c #86C8E7",
"0. c #85C8E7",
"q. c #86C9E9",
"w. c #87CCEB",
"e. c #87CCEC",
"r. c #86C9E9",
"t. c #88CCEC",
"y. c #88CDED",
"u. c #88CEEE",
"i. c #89CEEF",
"p. c #89CFEF",
"a. c #89CFEF",
"s. c #8ACFF0",
"d. c #8ACFF0",
"f. c #8AD0F0",
"g. c #8AD0F1",
"h. c #8BD0F1",
"j. c #8AD1F1",
"k. c #8BD1F1",
"l. c #8AD0F1",
/* pixels */
"g.g.g.g.g.g.g.g.g.g.g.g.g.g.d.d.2.%.G C n 0 2 2 2 n Z X.*.3.a.a.g.g.g.g.g.g.g.g.",
"g.g.g.g.g.g.g.g.g.g.g.g.g.,.F 3 r J E ) ] } | | { ] ) R z s 4 G 1.g.g.g.g.g.g.g.",
"g.g.g.g.g.g.g.g.g.g.h.>.C & J ) |  . . . . . . . . . . . .| ( H * S <.g.g.g.g.g.",
"g.g.g.g.g.g.g.g.d.<.B r !  . . . . . . . . . . . . . . . . ..... .E e A 2.d.g.g.",
"g.g.g.g.g.g.g.p.X.% W  . . . . . . . . . . . . ... . . . . . . . . .| R * o.d.g.",
"g.g.g.g.g.g.4.b k | .. . . . . . . . . . . . . . . . . . . . . . . . . .{ f N 7.",
"g.g.g.g.d.3.6 J  . . . . . . . . . . . . . . . . . . . . . . . . . . . . .} w Z ",
"g.g.g.d.5.c U  . . . . . ... . . . ... . . . . . . . . . . . . . . . . .| l c 3.",
"g.g.g.8.c I .. . . . . . . . . . . . . . . . . . . . . . . . . . . . .` e F e.g.",
"g.g.g.S x  . . . . . . . . . . . . . . . ..._ W [  . . . . . . . . .Q $ %.d.g.g.",
"g.g.-.% {  . . . . . . . . . . . . . . . .U .   o /  . . . . . . .T > ;.d.g.g.g.",
"g.e.v Q  . . . . . . . . . . . . . . . .{ O       t | .. . . .| j b 3.g.d.g.g.g.",
"g.%.i | .... . . . . . . . . . . . . . .| w       k  . . . .' q G p.a.g.g.g.g.g.",
"g.c W  . . . . . . . . . . . . . . . . . .] j r K  . . . .W # &.g.g.h.g.g.g.g.g.",
"7.+ [  . . . . . . . . ... . . . . . . . . . . . . . . .U < ;.g.g.g.g.g.g.g.g.g.",
"%.y  . . . . . . . . . . . . . . . . . . . . . . . .} j m 3.g.g.g.g.g.g.g.g.g.g.",
"S I  . . . . . . . ... . . . . . . . . . . . . . .` a X.i.d.h.h.g.g.g.g.g.g.g.g.",
"5 /  . . . . . . . . . . . . . . . . . . . . . .W : =.h.d.d.l.h.g.g.g.g.g.g.g.g.",
"; ]  . . . . . . . . . . . . . . . . . . . . .Y : :.d.h.l.l.l.l.g.g.g.g.g.g.g.g.",
"= }  . . . . ... . . . . . . . . . . . . . .I X 6.d.d.h.l.l.l.l.g.g.g.g.g.g.g.g.",
"; ]  . . . . . . . . . . . . . . . . . . . .} t F l.l.i.l.l.l.l.g.g.g.g.g.g.g.g.",
"5 /  . . . . . . . . . . . . . . . . . . . . . .y A q.i.l.l.l.l.g.g.g.g.g.g.g.g.",
"Z U  . . . . . . . . . . . . . . . . . . . . . .} t D e.l.l.l.l.g.g.g.g.g.g.g.g.",
"+.j .. . . . . . . . . . . . . . . . . . . . . ...} h S e.l.l.l.g.g.g.g.g.g.g.g.",
"3.@ { .... . . . . . . . . . . . . . . . . . . .....| k N 7.g.g.g.g.g.g.g.g.g.g.",
"d.c Q .. . . . . . . . . . . ... . . . . . . . ..... . .J m 7.g.g.g.g.g.g.g.g.g.",
"d.O.g .. . . . . . . . . . . . . . . . . . . . . . . . .| x M q.g.g.g.g.g.g.g.g.",
"d.8.3 /  . . . . . . . . . . . . . . . . . . . . . . . ...| K 6 6.g.g.g.g.g.g.g.",
"h.h.@.w |  . . . . . . . . . . . . . . . . . . . . . . . . . .U 5 5.h.h.g.g.g.g.",
"h.d.d.C H  . . . . . . . . . . . . . . . . . . . . . . . . . . .T , <.h.g.g.g.g.",
"h.l.g.4., Q  . . . . . . . . . . . . . . . . . . . . . . . . . ...I 7 3.g.g.g.g.",
"l.l.g.g.>.> ^  . . . . . . . . . . . . . . . . . . . . . . . . .....U , 1.g.g.g.",
"l.l.l.l.l.>.: E .. . . . . . . . . . . . . . . . . . . . . . . . . . .Q : ;.g.g.",
"l.l.l.l.l.l.2.5 J | .... . . . . . . . . . . . . . . . . . . . . . . . .Q # ,.g.",
"l.l.l.l.l.l.l.5.N p ' .. . . . . . . . . . . . . . . . . . . . . . . ._ r A 7.g.",
"l.l.l.l.l.l.l.l.h.%.4 z '  . . . . . . . . . . . . . . . . . . . ._ j 6 =.g.g.g.",
"l.l.l.l.l.l.l.l.g.g.8.+.4 y Q |  . . . ......... . . . . . .| Q u 6 #.w.a.h.g.g.",
"l.l.l.l.l.l.l.l.g.g.g.g.d.;.S 1 p P ~ ' { | ....| { ` ! L u < S >.h.g.g.g.g.g.g.",
"l.l.l.l.l.l.l.l.g.g.g.g.g.g.g.8.&.F m 4 8 s r r s 9 4 M G =.q.g.h.g.g.g.g.g.g.g.",
"l.l.l.l.l.l.l.l.g.g.g.g.g.g.g.a.g.g.g.d.6.7.3.3.7.q.d.d.g.g.d.g.a.h.g.g.g.g.g.g."
};
