/* XPM */
static char *_784fae46bd94a6cf1bd73076a320d77YrLHrMKYrP3BC1X9[] = {
/* columns rows colors chars-per-pixel */
"40 35 117 2 ",
"   c #010101",
".  c #151405",
"X  c #1C1B04",
"o  c #2F310D",
"O  c #363707",
"+  c #383706",
"@  c #3C3C05",
"#  c #34340A",
"$  c #2C2E13",
"%  c #282E19",
"&  c #2B311D",
"*  c #313413",
"=  c #353914",
"-  c #32371D",
";  c #232B22",
":  c #242F2C",
">  c #2A3223",
",  c #2D382C",
"<  c #253233",
"1  c #293635",
"2  c #2D3933",
"3  c #27363A",
"4  c #2C3B3D",
"5  c #354134",
"6  c #344238",
"7  c #454505",
"8  c #4B4A06",
"9  c #44440B",
"0  c #4B4C0B",
"q  c #555406",
"w  c #5C5B06",
"e  c #565608",
"r  c #58570A",
"t  c #5C5B09",
"y  c #4C4E12",
"u  c #615F07",
"i  c #6E6D07",
"p  c #646309",
"a  c #6B6B08",
"s  c #727107",
"d  c #747308",
"f  c #7B7908",
"g  c #2C3F46",
"h  c #2C3F49",
"j  c #2F4145",
"k  c #2F424B",
"l  c #31454A",
"z  c #35484B",
"x  c #354B54",
"c  c #364F5B",
"v  c #37505C",
"b  c #3A535E",
"n  c #3C5662",
"m  c #3E5965",
"M  c #3F5C6A",
"N  c #415F6D",
"B  c #43626F",
"V  c #456573",
"C  c #4A6C7D",
"Z  c #858307",
"A  c #898707",
"S  c #8B8906",
"D  c #838208",
"F  c #898708",
"G  c #8E8D08",
"H  c #918F07",
"J  c #999706",
"K  c #9D9C07",
"L  c #929008",
"P  c #9C9A08",
"I  c #A4A207",
"U  c #AAA706",
"Y  c #AFAC07",
"T  c #B5B306",
"R  c #C1BD07",
"E  c #C6C406",
"W  c #C8C606",
"Q  c #CBC907",
"!  c #D0CD06",
"~  c #D4D205",
"^  c #D9D605",
"/  c #DDDA04",
"(  c #E1DE05",
")  c #E5E204",
"_  c #EAE604",
"`  c #EEEA02",
"'  c #F2EF00",
"]  c #F2F001",
"[  c #517689",
"{  c #537B8D",
"}  c #557E91",
"|  c #5D899F",
" . c #5F8CA2",
".. c #608FA5",
"X. c #6494AB",
"o. c #6DA2BA",
"O. c #70A6BF",
"+. c #72AAC4",
"@. c #74AEC8",
"#. c #77B1CD",
"$. c #78B3CF",
"%. c #7AB6D2",
"&. c #7BB9D5",
"*. c #7FBEDC",
"=. c #83C4E2",
"-. c #84C5E4",
";. c #85C7E6",
":. c #86C8E7",
">. c #86CAE8",
",. c #87CAE9",
"<. c #87CAEA",
"1. c #88CDED",
"2. c #89CFEE",
"3. c #8ACEEF",
"4. c #89CFF0",
"5. c #8AD0F0",
"6. c #8AD0F1",
/* pixels */
"6.6.6.6.6.6.6.6.6.6.6.4.4.=.X.M 1 $ @ 9 7 @ * , n | &.1.6.6.6.6.6.6.6.6.6.6.6.6.",
"6.6.6.6.6.6.6.6.6.6.6.O.n y d U ~ ' ' ' ' ' ] / T Z y x ..1.6.6.6.4.6.6.6.6.6.6.",
"6.6.6.6.6.6.6.6.4.&.c 9 Y _ ' ' ' ' ' ' ' ' ' ' ' ' ` E p 3 o.6.4.4.6.6.6.6.6.6.",
"6.6.6.6.6.6.6.1.} = I ' ` ' ' ' ' ' ' ' ' ' ' ' ' ' ] ' ] E 8 B ;.6.6.4.6.6.6.6.",
"6.6.6.6.6.6.;.n t ( ' ' ' ' ' ' ' ' ' ' ' ' ' ' ' ' ' ' ' ' ` F 4 %.4.4.6.6.6.6.",
"6.6.6.6.6.:.j F ' ' ' ' ' ' ' ' ' ' ' ' ' ' ' ' ' ' ' ' ' ' ' ] T > $.4.6.6.6.6.",
"6.6.6.6.>.h L ' ' ' ' ' ' ' ' ' ' ' ' ' ' ] ' ' ' ' ' ' ' ' ] ' ' R ; %.6.6.4.4.",
"6.6.6.1.m D ' ' ' ' ' ' ' ' ' ' ' ' ' ' ' ' ' ' ' ' ' ' ' ' ' ' ' ' T 4 ;.6.4.4.",
"6.6.6. .t ` ' ' ' ' ' ' ' ' ' ' ' ' ' ' ' ' ] ' ' ' ' ' ' ' ' ' ' ' ' G n 4.4.4.",
"6.6.=.$ / ' ' ' ' ' ' ' ' ' ' ' ' ' ' ' ' ' ' ' ' ' ] ' ' ' ' ' ' ' ' ' 0 o.4.4.",
"5.6.M K ' ' ' ' ' ' ' ' ' ' ' ' ' ' ' ' ' ' ' ' ' ' ' ' ' ' ' ' ' ' ' ' ^ < ,.4.",
"5.$.& ' ' ' ' ' ' ' ' ' ' ' ' ' ' ' ' ' ' ' ' ' ' ' ' ' ' ' ' ' ' ' ' ' ' p  .4.",
"5.C H ' ' ' ' ' ' ' ' ' ' ' ' ' ' ' ' ' ' ' ' ' ' ' ' ' ' ' ' ' ' ' ' ' ' W z 4.",
">.5 / ' ' ' ' ' ' ' ' ' ' ' ' ' ' ' ' ' ' ' ' ' ' ' ' ' ' ' ' ' ' ' ' ' ' ' 0 #.",
"+.w ' ' ' ' ' ' ' ' ' ' ' ' ' ' ' ' ' ' ' ' ' ' ' ' ] ' ' ' ' ' ' ' ' ' ' ' S { ",
"} S ' ' ' ' ' ' ' ' ' ' ' ' ' ' ' ' ] ' ' ' ' ' ' ' ' ' ' ' ' ' ' ' ' ' ' ' R l ",
"x T ' ' ' ' ' ' ' ' ' ' ' ' ' ' ' ' ' ' ' ' ' ' ' ' ' ' ' ' ' ' ' ' ' ' ' ' _ % ",
", ~ ' ' ' ' ' ' ' ' ' ' ' ' ' ' ' ' ' ' ' ' ' ' ' ' ' ' ' ' ' ' ' ' ' ' ' ' ' O ",
"& _ ' ' ' ' ' ] ' ' ^ r q Q ' ' ] ] ' ' ' ' ' ' ' ' ' ' ' ' ' ' ' ' ' ' ' ' ' 8 ",
"$ ' ' ' ' ' ' ' ' ` +     X ) ' ' ] ] Q Y ' ' ' ' ' ' ' ' ' ' ' ' ' ' ' ' ' ' q ",
"$ ' ' ' ' ' ' ' ' / .       / ' ' ' ) = : P ' ' ' ' ' ' ' ' ' ' ' ' ' ' ' ' ' q ",
"& _ ' ' ' ' ' ' ' ' u     9 ' ' ' ) # X.=.l Z ' ' ' ' ' ' ' ' ' ' ' ' ' ' ' ' 0 ",
"2 ~ ' ' ' ' ' ' ' ' ` P J _ ' ' ) 0 ..4.4.4.b a ` ' ' ' ' ' ' ' ' ' ' ' ' ' ' + ",
"x T ' ' ' ' ' ' ' ' ' ' ' ' ' ' 0 { 1.4.4.4.1.V q _ ' ' ' ' ' ' ' ' ' ' ' ' ) % ",
"} S ' ' ' ' ' ' ' ' ' ' ' ' ' t [ 4.6.6.6.6.6.4.[ 9 ( ' ' ' ' ' ' ' ' ' ' ' R l ",
"+.e ' ' ' ' ' ' ' ' ' ' ' ' u N 3.6.6.6.6.6.6.6.4...o ! ' ' ' ' ' ' ' ' ' ' F { ",
",.6 / ' ' ' ' ' ' ' ' ' ' s N 4.1.4.6.6.6.6.6.6.4.4.+.- R ' ' ' ' ' ' ' ' ' y %.",
"4.C L ' ' ' ' ' ' ' ' ' D x 1.4.4.4.6.6.6.6.6.6.4.4.1.@.: T ' ' ' ' ' ' ' W z 1.",
"4.&.$ ' ' ' ' ' ' ' ' H l 1.6.6.4.6.6.6.6.6.6.6.6.6.6.6.*.< P ' ' ' ' ' ' t ..6.",
"4.6.N P ' ' ' ' ' ' I g ,.6.6.6.6.6.6.6.6.6.6.6.6.6.6.6.4.;.g A ' ' ' ' ! 3 4.6.",
"6.6.;.% ~ ' ' ' ' U 1 ;.4.4.6.6.6.6.6.6.6.6.6.6.6.6.6.6.4.4.3.b a _ ' ` 8 +.6.6.",
"6.6.4...r ` ' ' T 2 &.6.6.4.6.6.6.6.6.6.6.6.6.6.6.6.4.4.4.4.4.:.N w _ Z N 4.6.6.",
"6.6.6.4.N f ' E ; &.6.6.6.6.6.6.6.6.6.6.6.6.6.6.6.6.6.6.6.6.6.6.6.{ # 4 >.4.4.6.",
"6.6.6.6.=.x i - @.4.6.6.6.6.6.6.6.6.6.6.6.6.6.6.6.6.6.6.6.6.6.6.6.6. .#.6.6.4.6.",
"6.6.6.6.6.>.c o.4.4.4.6.6.6.6.6.6.6.6.6.6.6.6.6.6.6.6.6.6.6.6.6.4.4.6.4.6.6.6.6."
};
