/* XPM */
static char *_ad27f44716c4513c0a2e02e5877de8cpNs22cg43jkpCtyR[] = {
/* columns rows colors chars-per-pixel */
"35 40 116 2 ",
"   c #010101",
".  c #151405",
"X  c #1C1B04",
"o  c #2F310D",
"O  c #363707",
"+  c #383706",
"@  c #3C3C05",
"#  c #34340A",
"$  c #2C2E13",
"%  c #282E19",
"&  c #2B311D",
"*  c #313413",
"=  c #353914",
"-  c #32371D",
";  c #232B22",
":  c #242F2C",
">  c #273026",
",  c #2A3223",
"<  c #2D382C",
"1  c #253233",
"2  c #293635",
"3  c #2D3933",
"4  c #27363A",
"5  c #2C3B3D",
"6  c #3F461F",
"7  c #354134",
"8  c #344238",
"9  c #454505",
"0  c #4B4A06",
"q  c #44440B",
"w  c #4B4C0B",
"e  c #555406",
"r  c #5C5B06",
"t  c #565608",
"y  c #58570A",
"u  c #5C5B09",
"i  c #4C4E12",
"p  c #615F07",
"a  c #6E6D07",
"s  c #646309",
"d  c #6B6B08",
"f  c #727107",
"g  c #747308",
"h  c #7B7908",
"j  c #2C3F46",
"k  c #2C3F49",
"l  c #2F4145",
"z  c #2F424B",
"x  c #31454A",
"c  c #35484B",
"v  c #354B54",
"b  c #364F5B",
"n  c #37505C",
"m  c #3A535E",
"M  c #3C5662",
"N  c #3E5965",
"B  c #3F5C6A",
"V  c #415F6D",
"C  c #43626F",
"Z  c #456573",
"A  c #4A6C7D",
"S  c #858307",
"D  c #898707",
"F  c #8B8906",
"G  c #838208",
"H  c #898708",
"J  c #8E8D08",
"K  c #918F07",
"L  c #949207",
"P  c #999706",
"I  c #9D9C07",
"U  c #929008",
"Y  c #9C9A08",
"T  c #A4A207",
"R  c #AAA706",
"E  c #AFAC07",
"W  c #B5B306",
"Q  c #BFBC05",
"!  c #C1BD07",
"~  c #C6C406",
"^  c #C8C606",
"/  c #CBC907",
"(  c #D0CD06",
")  c #D4D205",
"_  c #D9D605",
"`  c #DDDA04",
"'  c #E1DE05",
"]  c #E5E204",
"[  c #EAE604",
"{  c #EEEA02",
"}  c #F2EF00",
"|  c #F2F001",
" . c #517689",
".. c #537B8D",
"X. c #557E91",
"o. c #578094",
"O. c #5D899F",
"+. c #5F8CA2",
"@. c #608FA5",
"#. c #6494AB",
"$. c #6DA2BA",
"%. c #70A6BF",
"&. c #72AAC4",
"*. c #74AEC8",
"=. c #77B1CD",
"-. c #78B3CF",
";. c #7AB6D2",
":. c #7BB9D5",
">. c #7FBEDC",
",. c #80C1DF",
"<. c #83C4E3",
"1. c #85C8E7",
"2. c #87CBEA",
"3. c #89CEEE",
"4. c #89CFF0",
"5. c #8AD0F1",
/* pixels */
"5.5.5.5.5.5.5.5.1.&.X.v 3 % $ $ & 3 v X.&.1.4.3.4.4.4.4.4.5.5.5.5.5.5.",
"5.5.5.5.5.5.:.A 8 y F W ) [ } } [ ) W F u 3  .=.4.4.4.4.4.4.5.5.5.5.5.",
"5.5.5.4.<.Z $ U ` } } } } } } } } } } } } ' L * V ,.4.4.5.5.5.5.5.5.5.",
"5.5.3.+.% Y } } } } } } } } } } } } } } } } } } T $ +.3.5.5.5.5.5.5.5.",
"4.<.V y ) } } } } } } } } } } } } } } } } } } } } ' e V 3.4.4.4.5.5.5.",
"1.v h { } } } } } } } } } } } } } } } } } } } } } } { G k 1.5.4.5.5.5.",
"b a } } } } } } } } } } } } } } } } } } } } } } } } } } K j 1.5.5.5.5.",
"$.- ~ } } } } } } } } } } } } } } } } } } } } } } } } } } H V 4.5.5.5.",
"4.*.; W } } } } } } } } } } } } } } } } } } } } } } } } } { p X.4.4.4.",
"5.5.:.3 R } } } } } } } } } ` [ } } } } } } } } } } } } } } ' = :.4.5.",
"5.5.4.:.2 T } } } } } } } p . + _ } } } } } } } } } } } } } } T v 4.4.",
"5.5.5.5.,.j J } } } } } I       r } } } } } } } } } } } } } } } q %.4.",
"4.5.5.5.5.1.z G } } } } P       e } } } } } } } } } } } } } } } E V 4.",
"5.5.5.5.5.5.3.v f } } } [ 9   X / } } } } } } } } } } } } } } } ' i >.",
"5.5.5.5.5.5.5.3.V s } } } } ) ] } } } } } } } } } } } } } } } } } f #.",
"5.5.5.5.5.5.5.5.4.V u { } } } } } } } } } } } } } } } } } } } } } R V ",
"5.5.5.5.5.5.5.5.5.5.A w ' } } } } } } } } } } } } } } } } } } } } ) 3 ",
"5.5.5.5.5.5.5.5.5.5.5...w ' } } } } } } } } } } } } } } } } } } } } $ ",
"5.5.5.5.5.5.5.5.5.5.5.5.@.# ' } } } } } } } } } } } } } } } } } } } + ",
"5.5.5.5.5.5.5.5.5.5.5.5.5.#.= ( } } } } } } } } } } } } } } } } } } 9 ",
"5.5.5.5.5.5.5.5.5.5.5.5.4.<.: E } } } } } } } } } } } } } } } } } } 9 ",
"5.5.5.5.5.5.5.5.5.5.5.5.4.k I } } } } } } } } } } } } } } } } } } } @ ",
"5.5.5.5.5.5.5.5.5.5.5.3.n S } } } } } } } } } } } } } } } } } } } } o ",
"5.5.5.5.5.5.5.5.5.5.5.Z a } } } } } } } } } } } } } } } } } } } { ' < ",
"5.5.5.5.5.5.5.5.4.4. .t [ } } } } } } } } } } } } } } } } } } } } W M ",
"5.5.5.5.5.5.5.5.4.#.q ] } } } } } } } } } } } } } } } } } } } } } G @.",
"5.5.5.5.5.5.5.5.$.o ' } } } } } } } } } } } } } } } } } } } } } { i :.",
"5.5.5.5.5.5.5.*.- ) } } } } } } } } } } } } } } } } } } } } } } / v 4.",
"5.5.5.5.5.5.>., ! } } } } } } } } } } } } } } } } } } } } } } } p @.5.",
"5.5.5.5.5.<.1 W } } } } } } } } } } } } } } } } } } } } } } } ^ 4 2.5.",
"5.5.5.5.2.k Y } } } } } } } } } } } } } } } } } } } } } } } } q %.4.5.",
"5.5.5.2.m H } } } } } } } } } } } } } } } } } } } } } } } } H C 5.5.5.",
"5.5.5.C a } } } } } } } } } } } } } } } } } } } } } } } } W 4 <.5.5.5.",
"5.5. .y [ } } } } } } } } } } } } } } } } } } } } } } } ! , ;.5.5.5.5.",
"5.@.o { } } } } } } } } } } } } } } } } } } } } } } } W ; -.5.5.5.5.5.",
"5.-.5 H { } } } } } } } } } } } } } } } } } } } } } U 3 ;.5.5.5.5.5.5.",
"5.5.<.V 9 ) } } } } } } } } } } } } } } } } } | _ w V ,.4.5.5.5.5.5.5.",
"5.5.5.5.%.4 p ^ } } } } } } } } } } } } } } / p 1 $.5.5.5.5.5.5.5.5.5.",
"5.5.5.5.4.2.@.c i F ! ] } } } } } } [ ! H i c O.2.4.4.5.5.5.5.5.5.5.5.",
"5.5.5.5.5.5.4.3.-...x % # 0 e e 0 + % x  .-.4.4.4.4.4.4.5.5.5.5.5.5.5."
};
