/* XPM */
static char *f4f1d5c6700e420ebe109045d20ebdc0i7C4aMxkoBzo64Dx[] = {
/* columns rows colors chars-per-pixel */
"40 40 123 2 ",
"   c #000000",
".  c #161503",
"X  c #131A1D",
"o  c #262604",
"O  c #2A2904",
"+  c #252509",
"@  c #303106",
"#  c #292F1D",
"$  c #2C3119",
"%  c #343712",
"&  c #393E17",
"*  c #313719",
"=  c #161F23",
"-  c #192429",
";  c #252E24",
":  c #2F3722",
">  c #26322C",
",  c #2B362A",
"<  c #2F392C",
"1  c #353E2A",
"2  c #293533",
"3  c #2C3932",
"4  c #24343C",
"5  c #2C3B3B",
"6  c #3B4220",
"7  c #344032",
"8  c #444407",
"9  c #4B4A06",
"0  c #45470D",
"q  c #4C4C0C",
"w  c #535206",
"e  c #5D5C06",
"r  c #55550C",
"t  c #57580B",
"y  c #595809",
"u  c #494C13",
"i  c #605F06",
"p  c #676707",
"a  c #6C6B07",
"s  c #616108",
"d  c #6E6D08",
"f  c #747306",
"g  c #787707",
"h  c #7B7A06",
"j  c #787708",
"k  c #2B3C43",
"l  c #2F4143",
"z  c #2E424A",
"x  c #374944",
"c  c #31454C",
"v  c #324751",
"b  c #334A52",
"n  c #384F55",
"m  c #37525E",
"M  c #3A545E",
"N  c #395360",
"B  c #3C5864",
"V  c #3E5B69",
"C  c #466776",
"Z  c #476979",
"A  c #496D7D",
"S  c #817F06",
"D  c #838206",
"F  c #898707",
"G  c #8B8906",
"H  c #908E05",
"J  c #969406",
"K  c #9D9B06",
"L  c #A29F06",
"P  c #A4A206",
"I  c #A8A505",
"U  c #ADAB06",
"Y  c #B1AE05",
"T  c #B5B206",
"R  c #B9B605",
"E  c #BCB905",
"W  c #C2BF06",
"Q  c #C6C306",
"!  c #C9C705",
"~  c #CCCA04",
"^  c #D0CE05",
"/  c #D5D204",
"(  c #D9D604",
")  c #DDDA04",
"_  c #E1DE04",
"`  c #E5E303",
"'  c #E9E604",
"]  c #EDEA02",
"[  c #F2EF00",
"{  c #F2F002",
"}  c #4C7082",
"|  c #547D91",
" . c #578195",
".. c #598598",
"X. c #5B889C",
"o. c #5F8DA2",
"O. c #6191A7",
"+. c #6393AA",
"@. c #6698AF",
"#. c #6698B0",
"$. c #699BB3",
"%. c #6B9FB8",
"&. c #6DA3BC",
"*. c #70A6C0",
"=. c #72AAC4",
"-. c #74AEC9",
";. c #77B2CD",
":. c #7AB6D2",
">. c #7CB9D6",
",. c #7DBCD9",
"<. c #80C1DF",
"1. c #82C3E1",
"2. c #84C6E4",
"3. c #84C7E6",
"4. c #85C8E6",
"5. c #85C8E8",
"6. c #86C9E9",
"7. c #87CCEB",
"8. c #87CCEC",
"9. c #89CEEF",
"0. c #8ACFF0",
"q. c #8AD0F0",
"w. c #8AD0F1",
/* pixels */
"w.w.w.w.w.1.N ,.0.w.w.w.w.w.w.w.w.w.w.w.w.w.w.w.w.w.w.w.w.w.w.w.9.w.w.w.w.w.w.w.",
"w.w.w.w.9.b 9 l 9.w.w.w.w.w.w.w.w.w.w.w.w.w.w.w.w.w.w.w.w.w.w.w.q.-.2.9.w.w.w.w.",
"w.w.w.0.| p ' g C 0.w.w.w.w.w.w.w.w.w.w.w.w.w.w.w.w.w.w.w.w.w.w.&.; B w.w.w.w.w.",
"w.w.w.>.* ` [ ] 0 +.w.0.w.w.w.w.w.w.w.w.w.w.w.w.w.w.w.w.w.w.w.:.; R 9 $.w.w.w.w.",
"w.0.0.B I [ [ [ / $ &.0.w.w.w.w.w.w.w.w.w.w.w.w.w.w.w.w.w.w.,.> T [ ~ 5 8.w.w.w.",
"w.0.;.0 ] [ [ [ [ Y , ,.w.w.w.w.w.w.w.w.w.w.w.w.w.w.w.w.w.;.7 K [ [ { d o.0.w.w.",
"w.w.V U [ [ [ [ [ [ I z 9.0.w.w.w.w.w.w.w.w.w.w.w.w.w.w.<.2 J { [ [ [ / 5 w.w.w.",
"w.:.* [ [ [ [ [ [ [ [ a } 0.w.w.w.w.w.w.w.w.w.w.w.w.w.2.4 P { { [ [ [ { w =.w.w.",
"w.Z S { [ [ [ [ [ [ [ ] 8 @.0.0.w.w.w.w.w.w.w.w.w.w.6.5 K [ [ [ [ [ [ [ T V 0.0.",
"0.5 ! [ [ [ [ [ [ [ [ [ ( # &.0.w.w.w.w.w.w.w.w.0.1.b F [ [ [ [ [ [ [ [ ] , 6.0.",
">.u ] [ [ [ [ [ [ [ [ [ [ U , ,.w.w.w.w.w.w.w.w.1.c j ] [ [ [ [ [ [ [ [ [ r %.0.",
"@.h [ [ [ [ [ [ [ [ [ [ [ [ L c 9.w.w.w.w.w.9.9.b D ] { [ [ [ [ [ [ [ [ [ F A 0.",
"} I [ [ { [ [ [ [ [ [ [ [ [ [ d } w.9.w.w.w.7.B f ] [ [ [ [ [ [ [ [ [ [ [ R v 0.",
"M ~ [ [ [ [ [ [ [ [ [ [ [ [ [ ' 0 #.w.w.w.6.C s ] [ [ [ [ [ [ [ [ [ [ [ [ / 3 0.",
"x ) { [ [ [ [ [ [ { Q w f ] { [ ^ ; =.w.w.B w ] { [ [ [ [ [ [ [ [ [ [ [ [ ` 6 6.",
"7 ' [ [ [ [ [ [ [ ) o     G { { { U ; 2.Z e ' [ [ [ [ [ [ [ [ [ [ [ [ [ [ ] u 1.",
"1 ] [ [ [ [ [ [ [ Y       9 [ [ [ [ L X w [ [ [ [ [ [ [ [ [ [ [ [ [ [ [ [ [ q ,.",
"1 ] [ [ [ [ [ [ [ ^ .     f [ [ [ [ [ J ' { [ [ [ [ [ [ [ [ [ [ [ [ [ { [ [ u ,.",
"1 ` [ [ [ [ [ [ [ [ L O 9 ) [ [ { [ [ [ [ [ [ [ [ [ [ [ [ [ [ [ [ [ [ [ [ [ u 1.",
"x ) [ [ [ [ [ [ [ [ [ _ ] [ [ [ [ [ [ [ [ [ [ [ [ [ [ [ [ [ [ [ [ [ [ [ [ ` 6 6.",
"M ~ { { [ [ [ [ [ [ [ [ [ [ [ [ [ [ [ [ [ [ [ [ [ [ [ [ [ [ [ [ [ [ [ [ [ ( < w.",
"A U [ { [ [ [ [ [ [ [ [ [ [ [ [ [ [ [ [ [ [ [ [ [ [ [ [ [ [ [ [ [ [ [ [ [ E c w.",
"+.D [ [ [ [ [ [ [ [ [ [ [ [ [ [ [ [ [ [ [ [ [ [ [ [ [ [ [ [ [ [ [ [ [ [ [ H Z w.",
":.q [ [ [ [ [ [ [ [ [ [ [ [ [ [ [ [ [ [ [ [ [ [ [ [ [ [ [ [ [ [ [ [ [ [ [ t #.w.",
"0.2 ~ [ [ [ [ [ [ [ [ [ [ [ [ { [ [ [ [ [ [ [ [ [ [ [ [ [ [ [ [ [ [ [ [ [ , 4.w.",
"0.Z D [ [ [ [ [ [ [ [ [ [ [ [ [ { [ [ [ [ [ [ [ [ [ [ [ [ [ { [ [ [ [ [ T V w.w.",
"0.-.& [ [ [ [ [ [ [ [ [ [ [ [ [ [ [ [ [ [ [ [ [ [ [ [ [ [ [ [ [ [ [ [ { e &.w.w.",
"w.w.N R [ [ [ [ [ [ [ [ [ [ [ [ [ [ [ [ [ [ [ [ [ [ [ [ [ [ [ [ [ [ [ ( 3 0.w.w.",
"w.w.-.q [ [ [ [ [ [ [ [ [ [ [ [ [ [ [ [ [ [ [ [ [ [ [ [ [ [ [ [ [ [ [ h ..w.w.w.",
"w.w.w.n Y [ [ [ [ [ [ [ [ [ [ [ [ [ [ [ [ [ [ [ [ [ [ [ [ [ [ [ [ [ / 3 2.w.w.w.",
"w.w.w.;.% ' [ [ [ [ [ [ [ [ [ [ [ [ [ [ [ [ [ { [ [ [ [ [ [ [ [ [ [ y +.w.w.w.w.",
"w.w.w.w.} f [ [ { [ [ [ [ [ [ [ [ [ [ [ [ [ [ [ [ [ [ [ [ [ [ [ [ D b w.w.w.w.w.",
"w.w.w.w.0.c S [ [ [ [ [ [ [ [ [ [ [ [ [ [ [ [ [ [ [ [ [ [ [ [ [ U 4 1.w.w.w.w.w.",
"w.w.w.w.9.1.k K [ [ [ [ [ [ [ [ [ [ [ [ [ [ [ [ [ [ [ [ [ [ [ W ; :.w.w.w.w.w.w.",
"w.w.w.w.q.w.,.5 J [ [ [ [ [ [ [ [ [ [ [ [ [ [ [ [ [ [ [ [ [ T : =.w.w.w.w.w.w.w.",
"w.w.w.w.q.q.w.<.k j ` [ [ [ [ [ [ [ [ { [ [ [ [ [ [ [ { ] S > -.w.w.w.w.w.w.w.w.",
"w.w.w.w.w.w.w.w.6.V % R ] [ [ [ [ [ [ [ [ [ [ { [ [ [ Q q m ,.w.w.w.w.w.w.w.w.w.",
"w.w.w.w.w.w.w.w.0.w.%.k t Y _ [ [ { [ [ [ [ [ { ` T a 3 X.0.w.w.w.w.w.w.w.w.w.w.",
"w.w.w.w.w.w.w.w.w.w.w.0.+.k + i G Q ) ' _ Q K a @ k  .4.0.w.w.w.w.w.w.w.w.w.w.w.",
"w.w.w.w.w.w.w.w.w.w.0.0.0.0.1.O.B k - = - 4 m ..,.w.0.w.w.w.w.w.w.w.w.w.w.w.w.w."
};
