/* XPM */
static char *d9cad4c9e6da4962f594e37afeaad82cjvgUmZbCKW8s58v0[] = {
/* columns rows colors chars-per-pixel */
"40 40 161 2 ",
"   c #232577",
".  c #25257F",
"X  c #25297B",
"o  c #2A347B",
"O  c #131585",
"+  c #15178B",
"@  c #15188D",
"#  c #171992",
"$  c #181A95",
"%  c #1A1B9C",
"&  c #1E2089",
"*  c #272A83",
"=  c #2A2A85",
"-  c #25258D",
";  c #2C2D8B",
":  c #302F8D",
">  c #30308F",
",  c #323294",
"<  c #35359B",
"1  c #1C1DA4",
"2  c #1E1FAC",
"3  c #1C1CB5",
"4  c #1E1FB9",
"5  c #1E20AD",
"6  c #2727A6",
"7  c #2827A1",
"8  c #292BA4",
"9  c #2B2BAD",
"0  c #3535A4",
"q  c #2D2CB3",
"w  c #2222BD",
"e  c #2F2EB9",
"r  c #2831B3",
"t  c #3332B4",
"y  c #3838B6",
"u  c #3534BA",
"i  c #3837BB",
"p  c #3C3CBA",
"a  c #394B8C",
"s  c #4243BE",
"d  c #2322C3",
"f  c #2626CB",
"g  c #2E2ECA",
"h  c #3636C3",
"j  c #3A39C4",
"k  c #3435CA",
"l  c #3A3ACD",
"z  c #2727D2",
"x  c #2A2AD5",
"c  c #2626DC",
"v  c #2F2FD9",
"b  c #3232D3",
"n  c #3B3BD4",
"m  c #3435DD",
"M  c #3837DC",
"N  c #3738DF",
"B  c #3C3BDD",
"V  c #2727E3",
"C  c #2827E2",
"Z  c #2B2AE5",
"A  c #2D2DEB",
"S  c #302FEC",
"D  c #3435E5",
"F  c #3738E3",
"G  c #3D3DE2",
"H  c #3333EC",
"J  c #3738EB",
"K  c #3B3CEC",
"L  c #2E2EF3",
"P  c #302FF6",
"I  c #3434F4",
"U  c #3837F3",
"Y  c #333CF5",
"T  c #3C3CF4",
"R  c #3433F8",
"E  c #3B3BF8",
"W  c #403FC4",
"Q  c #403FE2",
"!  c #403FF1",
"~  c #3C50C3",
"^  c #3F40E9",
"/  c #3F40F3",
"(  c #3B49F3",
")  c #4646C4",
"_  c #4040CE",
"`  c #4257CB",
"'  c #435ACD",
"]  c #4444D5",
"[  c #4848D7",
"{  c #4343DE",
"}  c #4847DF",
"|  c #4B4CDC",
" . c #504FDA",
".. c #465BD3",
"X. c #4F50DF",
"o. c #495EDC",
"O. c #5353DC",
"+. c #4D6ECC",
"@. c #5172C5",
"#. c #4343E3",
"$. c #4748E3",
"%. c #4B4BE4",
"&. c #4343EB",
"*. c #4847EA",
"=. c #4B4BE9",
"-. c #504FE7",
";. c #504FE8",
":. c #4F50E0",
">. c #4B5FE4",
",. c #4F50E9",
"<. c #4A5EEC",
"1. c #5151E0",
"2. c #5353E1",
"3. c #5051E3",
"4. c #5152E0",
"5. c #5453E1",
"6. c #5756E1",
"7. c #5555E1",
"8. c #5857E0",
"9. c #5958E1",
"0. c #5A59E0",
"q. c #5252E9",
"w. c #4141F2",
"e. c #495EF2",
"r. c #4B60E6",
"t. c #597EF2",
"y. c #5F8AD8",
"u. c #6493C1",
"i. c #6A9CC8",
"p. c #6C9FD6",
"a. c #6EA1CC",
"s. c #6FA2CD",
"d. c #6FA2CE",
"f. c #6FA1D1",
"g. c #6FA2D0",
"h. c #6FA1D3",
"j. c #6FA2D3",
"k. c #6EA1D5",
"l. c #6DA0D5",
"z. c #6EA2D8",
"x. c #72A7DF",
"c. c #74ABD4",
"v. c #6FA3EA",
"b. c #73A7E0",
"n. c #73A8E0",
"m. c #74ABE1",
"M. c #73A8E4",
"N. c #71A5ED",
"B. c #74A9E8",
"V. c #71A6F0",
"C. c #7AB5F2",
"Z. c #7DBAF2",
"A. c #84C5ED",
"S. c #86CAEF",
"D. c #89CEEF",
"F. c #8ACFF1",
"G. c #89CEF0",
"H. c #8ACEF1",
"J. c #8AD0F1",
"K. c #8BD1F1",
"L. c #8AD0F1",
/* pixels */
"J.J.K.A.x.p.p.p.z.z.z.z.j.j.c.c.f.f.f.f.s.s.f.s.s.s.f.s.s.a.a.a.i.a.c.D.F.F.J.J.",
"J.S.@.8 7 0 0 0 0 0 0 < 0 < < < < < , < , , , > > > : ; ; : = = * .   o u.F.J.J.",
"J.@.6 r j W ) ) ) ) ) ) ) ) s s s s s s s s s p p p p p y y y t t q 6 -   i.J.J.",
"S.8 u l [  . .O.O.O.O.O.O.O.O.O.O. .O. . .| [ [ [ [ ] ] ] ] ] n n b k q - a J.J.",
"m.9 j [ O.8.0.0.0.8.0.8.0.O.8.8.0.O.O.O.5. .-.| | } } } } ] { B B n M g 7 X J.J.",
"x.t _ | 7.8.0.7.5.5.5.5.7.5.3.5.5.O.-. . .-.| | | } } } { Q Q Q B B M g 6 X F.J.",
"x.t ] O.8.7.3.%.$.| | $.%.| $.| -.| %.%.$.} } $.} { { { { B n B M M m b 9 * F.J.",
"b.i _ -.7.3.$.} { Q { { { #.{ { { { { { #.} { { ^ ^ B B B B M M N N m b 9 * F.J.",
"b.i [ %.-.| { Q B G Q B Q Q { { Q #.{ #.Q { { Q ^ ~ Q Q M M M M N m m b q * J.J.",
"n.i ] | -.%.{ Q B B B Q Q Q Q { { { #.#.#.#.{ { Q Q Q Q Q M M M N m m v q * J.J.",
"M.i ] $.%.$.#.Q G Q Q Q Q Q Q #.#.#.#.$.#.{ #.#.Q Q Q Q Q G G F N N F b q ; G.J.",
"M.i ] $.$.$.#.Q Q Q Q Q #.#.$.$.$.$.$.$.$.$.$.$.Q { #.Q Q Q G G F N F b q = K.G.",
"M.h ] #.$.$.#.#.Q Q Q #.#.%.$.$.$.%.%.%.%.$.%.$.$.$.#.#.Q Q Q Q G F F M e ; F.F.",
"b.h n #.$.$.&.#.Q #.&.$.#.%.%.%.=.-.-.=.-.=.=.=.%.$.*.*.#.#.Q Q Q F K M r ; F.F.",
"M.h B #.&.*.#.#.*.#.$.$.=.=.%.-.-.-.-.-.-.-.;.%.=.=.$.$.*.#.&.#.&.G G M u ; F.F.",
"M.k B #.#.#.&.#.#.*.*.=.=.%.;.;.3.q.q.q.q.q.;.;.;.%.=.*.$.*.*.Q Q Q G B u @ F.F.",
"m.k B G #.#.#.&.*.$.*.=.=.,.q.;.q.q.q.q.q.q.q.q.=.,.=.*.*.$.&.^ F H D c 3 O F.F.",
"B.l B &.&.&.*.*.*.*.=.=.q.q.=.q.q.q.q.q.=.=.=.*.#.&.G K J D D Z Z Z V c 3 O F.F.",
"B.l G #.K *.*.*.*.=.$.*.*.&.&.&.&.&.*.*.*.^ &.G K F F D D D H Z Z Z Z c 3 + F.F.",
"B.l G G &.*.$.&.K K J D K K ^ K &.&.&.*.&.&.&.K K K K K H H D H A Z A c 4 @ H.F.",
"B.n B &.&.K H H H H K K K K Q ^ &.&.*.*.*.w.&.&.&.K K J H H D S Z A Z C 4 @ F.J.",
"B.n G K H A S D D J K H K K ! &.&.&.w.*.&.&.w.K ^ K J J J H H H H A A c w # F.F.",
"B.n D Z A H S H H J J K K &.&.! &.&.w.*.&.&.( &.K K K J J J H S A S A C d # F.F.",
"N.z C A A A H H H J J K K K K &.&.^ &.w.&.&.w.&.! &.K K J J H H H S A Z d $ F.F.",
"v.c V A L S H I I J U K K ! &.T w.&.&.w.&.w.w.^ T ! K K J J H H H S A Z d $ F.F.",
"v.c Z A A I H H J J J T K T T &.w.w.w.&.w.&.w./ &.K T J T U H I H L L Z d % F.F.",
"v.c A A A H I I J U J T T K w.w.w.&.w.w.w.w./ / T / K T U J U H I H A A f % F.F.",
"B.V Z L P P I H I U T U T T ! T ! ! w.w.w.T / / T T T T U U U I H L I A f % F.F.",
"v.V A L P H I I U U U T T T T / ! w.w.w.w.w./ / T T T J T U U I I L L A f 1 G.J.",
"V.Z A L I P I I U U U E T / E / T w./ / w.w./ E T T E E U U I I I I L A f 1 F.J.",
"V.Z A L P P I I U U U E T T / E / w.E / w.E T E T T E U E U U I I L L A f 1 F.F.",
"V.A L L I I I I Y R U E E E E E E E E / E w.E T T T E E U Y I I I R P A z 2 D.J.",
"V.A L L P P R R R R R E E E E E E ! E E ! E E E ! E E E E R R I R P P L z 5 K.J.",
"V.L L P P R R R R Y E R E E E E E E ! E ! E E E E E E R E R R R R R P L z 5 D.J.",
"C.L L P R R R R Y E R E E E E E E E E E E E E E U E E R E I R R R I L S f r J.J.",
"S./ L P P R R R R R R E U E Y E U T E T E E U E U U J U H I H I L S Z x w +.J.J.",
"L.C.Y P P R P P I H I J H J H H D D D F D m D m m v m v v v x x x z f w ~ A.J.J.",
"L.L.C.t.e.e.e.e.<.<.<.<.<.>.>.>.>.>.r.o.o.o.o.o.o.o.........` ..' ` ' y.S.K.J.J.",
"L.L.L.L.L.L.L.L.F.F.J.J.J.J.F.J.J.J.J.J.F.F.J.J.F.J.J.J.L.L.L.L.K.J.J.J.K.J.J.J.",
"L.L.L.L.L.L.L.L.F.F.J.J.J.J.J.J.J.J.J.J.J.J.J.J.G.F.J.J.L.L.L.L.K.K.J.J.K.J.J.J."
};
